<!--?xml version="1.0" standalone="no"?-->

<svg version="1.0" xmlns="http://www.w3.org/2000/svg" width="224.000000pt" height="300.000000pt" viewBox="0 0 224.000000 300.000000" preserveAspectRatio="xMidYMid meet">
<g transform="translate(0.000000,300.000000) scale(0.100000,-0.100000)" fill="#0E0E0E" stroke="none">
<path class="node" id="node1" d="M1576 2860 c6 -92 -8 -263 -32 -377 -39 -191 -156 -471 -289 -694
-84 -140 -115 -221 -115 -298 0 -59 6 -91 19 -91 3 0 7 16 8 35 2 38 19 75 34
75 21 0 99 -61 143 -113 103 -121 158 -303 136 -454 -18 -132 -86 -263 -173
-338 -46 -40 -43 -44 13 -15 22 11 48 20 60 20 30 0 27 -51 -6 -89 -14 -17
-23 -31 -19 -31 12 0 64 30 151 89 113 75 146 88 252 101 48 6 88 13 90 15 7
6 -64 53 -133 88 -118 59 -146 98 -106 148 17 22 21 22 46 9 25 -13 85 -85 85
-102 0 -4 -15 -8 -32 -8 l-33 0 50 -28 c117 -64 261 -187 320 -272 40 -57 42
-43 5 24 -42 74 -140 197 -271 337 -207 223 -219 239 -219 284 0 27 3 25 36
-33 20 -35 83 -113 142 -175 59 -62 133 -141 165 -176 l57 -65 -28 70 c-59
145 -63 222 -16 340 13 33 24 64 24 67 0 4 -12 7 -27 7 -61 0 -221 30 -273 51
-61 25 -106 61 -96 78 17 26 125 4 155 -32 12 -15 10 -17 -13 -17 -40 0 -31
-16 17 -28 118 -29 465 -45 505 -23 19 11 1 15 -148 31 -177 20 -369 75 -514
147 -111 56 -196 112 -196 129 0 21 14 17 40 -11 28 -30 132 -81 285 -139 122
-48 213 -72 301 -82 l59 -7 -51 49 c-76 72 -108 141 -108 234 -1 53 4 85 17
109 9 19 15 36 14 38 -2 2 -41 -22 -86 -53 -46 -31 -106 -67 -134 -80 -137
-62 -321 -46 -210 18 41 24 185 60 196 49 4 -4 -15 -23 -44 -42 -72 -46 -46
-48 43 -3 145 73 308 198 394 302 53 65 65 94 21 55 -37 -34 -197 -137 -287
-185 -173 -93 -327 -143 -455 -149 -72 -2 -95 0 -95 10 0 5 28 6 63 4 53 -5
78 0 172 31 107 36 325 141 325 157 0 5 -14 16 -30 24 -38 19 -87 86 -100 135
-5 20 -10 77 -11 127 -1 109 -14 141 -24 57 -16 -150 -61 -283 -120 -352 -34
-40 -113 -82 -156 -82 -31 0 -32 1 -26 41 8 58 51 138 126 231 90 112 95 112
89 0 -3 -51 -2 -89 2 -87 9 6 42 148 61 265 7 41 13 158 13 260 0 148 -4 208
-22 300 -32 167 -43 194 -36 90z"></path>
<path class="node" id="node2" d="M456 2785 c-25 -263 27 -638 116 -836 17 -38 34 -69 38 -69 4 0 -1
27 -11 61 -20 64 -25 129 -10 129 5 0 49 -39 98 -87 90 -90 143 -173 143 -227
0 -23 -4 -26 -35 -26 -44 0 -79 15 -133 58 -68 54 -108 124 -153 265 -23 70
-42 127 -43 127 0 0 -1 -57 -1 -127 0 -152 -12 -193 -69 -245 l-40 -37 50 -21
c27 -12 103 -40 169 -62 105 -36 132 -41 215 -42 52 -1 107 3 123 8 24 7 27 5
27 -13 0 -17 -6 -21 -32 -22 -148 -4 -289 21 -458 78 -104 36 -310 124 -379
163 -30 17 -27 12 23 -34 78 -74 187 -148 294 -200 127 -63 267 -104 170 -49
-51 28 -57 37 -32 47 44 17 230 -39 228 -69 -2 -24 -50 -36 -129 -31 -87 5
-168 33 -289 101 -37 20 -66 34 -66 31 0 -4 14 -33 30 -66 46 -92 49 -135 12
-214 -17 -35 -49 -85 -73 -111 -23 -25 -40 -48 -37 -50 3 -3 59 11 124 30 148
45 301 123 422 215 86 66 112 73 77 23 -25 -36 -178 -131 -319 -199 -92 -44
-175 -75 -280 -103 -82 -23 -158 -41 -168 -41 -12 0 -16 -4 -12 -11 10 -17
210 -2 303 22 42 11 112 32 156 47 75 25 78 27 46 32 -32 5 -33 6 -14 22 23
21 102 57 125 58 31 0 30 -22 -3 -56 -40 -41 -146 -87 -268 -115 -62 -14 -89
-25 -84 -32 3 -7 15 -24 25 -39 30 -43 48 -117 47 -198 0 -69 -3 -97 -23 -185
-6 -27 -5 -28 6 -11 7 10 60 83 118 163 137 188 178 252 186 285 6 30 24 39
24 13 0 -44 -48 -121 -210 -340 -53 -71 -115 -159 -138 -195 -42 -68 -107
-209 -99 -217 3 -2 21 25 41 61 59 105 110 161 217 237 98 70 101 73 75 82
-32 11 -33 32 -2 77 44 65 99 77 112 24 11 -42 -7 -74 -66 -122 -145 -115
-153 -131 -61 -124 73 5 149 -16 256 -72 44 -22 98 -50 120 -60 l40 -18 -21
24 c-12 12 -29 38 -38 56 -16 30 -16 33 0 39 15 6 40 1 119 -24 11 -3 -7 17
-41 45 -82 69 -150 153 -188 232 -30 63 -31 70 -31 195 1 123 2 134 33 208 37
90 121 219 157 243 23 15 27 15 50 0 14 -9 28 -30 32 -46 8 -43 23 -26 23 26
0 56 -13 82 -164 318 -184 288 -253 410 -326 575 -52 118 -98 299 -108 422
l-8 94 -8 -90z"></path>
<path class="node" id="node3" d="M963 1367 c-2 -71 -44 -257 -67 -302 -12 -24 -13 -39 -5 -74 7 -30 6
-48 -1 -55 -17 -17 -11 -51 15 -90 14 -20 25 -38 25 -40 0 -2 -11 -7 -25 -10
-14 -4 -25 -11 -25 -16 0 -5 31 -25 69 -44 66 -34 80 -49 82 -84 0 -19 101
-73 134 -72 11 1 36 14 55 30 19 17 39 30 46 30 7 0 9 10 7 24 -5 27 9 44 86
99 56 41 63 57 22 57 -37 0 -37 0 -11 42 21 35 26 83 10 93 -5 3 -10 32 -10
64 0 41 -5 65 -18 82 -22 28 -77 183 -96 271 l-14 63 -1 -68 c-1 -52 -10 -92
-41 -176 -46 -126 -49 -160 -16 -240 l24 -59 -67 -4 c-36 -2 -68 -3 -70 -1 -2
1 4 33 14 71 22 84 17 113 -37 223 -24 50 -46 114 -54 158 -8 41 -17 78 -21
82 -5 4 -9 -20 -10 -54z m350 -238 c1 -25 6 -39 14 -39 25 0 38 -47 27 -99 -9
-41 -8 -48 6 -47 25 2 24 -48 -2 -79 l-23 -27 -20 22 c-16 18 -20 35 -19 86
l2 65 -17 -33 c-19 -39 -41 -42 -58 -8 -13 26 -17 88 -7 114 7 19 40 21 47 4
3 -7 6 25 7 72 l1 85 20 -38 c11 -21 21 -56 22 -78z m-320 -41 c26 40 64 -29
54 -100 -8 -59 -23 -69 -53 -35 -13 15 -24 35 -24 44 0 9 -3 14 -6 11 -3 -3 0
-32 7 -64 18 -92 -12 -143 -55 -95 -21 24 -27 77 -7 73 10 -2 12 3 7 20 -4 13
-10 43 -13 67 -5 35 -2 47 12 57 13 10 19 29 20 61 2 27 8 62 16 78 12 29 13
28 23 -50 7 -47 15 -75 19 -67z m75 -298 c53 -33 70 -110 20 -91 -23 8 -50 47
-63 89 -8 27 1 28 43 2z m192 0 c0 -41 -44 -100 -74 -100 -3 0 -6 14 -6 31 0
20 10 40 29 60 35 34 51 37 51 9z"></path>
<path class="node" id="node4" d="M1110 542 c0 -44 -21 -56 -64 -38 -20 8 -36 13 -36 10 0 -3 12 -21
26 -40 20 -25 25 -40 20 -60 -6 -22 -11 -25 -34 -21 -15 2 -36 8 -46 12 -17 8
-19 5 -13 -30 7 -41 31 -72 91 -116 43 -32 55 -69 32 -104 -13 -19 -9 -26 47
-84 35 -36 63 -58 65 -51 3 7 24 37 49 66 41 52 43 56 28 77 -8 12 -15 29 -15
39 0 10 -5 18 -11 18 -6 0 9 17 34 38 63 53 79 78 85 130 l5 45 -32 -19 c-24
-14 -36 -16 -49 -8 -25 16 -27 53 -3 85 28 38 26 42 -9 24 -16 -8 -36 -15 -45
-15 -16 0 -36 39 -28 54 3 4 -8 5 -25 1 -17 -3 -40 -1 -51 5 -19 10 -21 8 -21
-18z"></path>
</g>
<g transform="translate(0.000000,300.000000) scale(0.100000,-0.100000)" fill="#A0A0A0" stroke="none">

<path class="node" id="node6" d="M1270 1160 c-1 -47 -4 -79 -7 -72 -7 17 -40 15 -47 -4 -10 -26 -6
-88 7 -114 17 -34 39 -31 58 8 l17 33 -2 -65 c-1 -51 3 -68 19 -86 l20 -22 23
27 c26 31 27 81 2 79 -14 -1 -15 6 -6 47 11 52 -2 99 -27 99 -8 0 -13 14 -14
39 -1 22 -11 57 -22 78 l-20 38 -1 -85z"></path>
<path class="node" id="node7" d="M951 1205 c-8 -16 -14 -51 -16 -78 -1 -32 -7 -51 -20 -61 -14 -10
-17 -22 -12 -57 3 -24 9 -54 13 -67 5 -17 3 -22 -7 -20 -20 4 -14 -49 7 -73
43 -48 73 3 55 95 -7 32 -10 61 -7 64 3 3 6 -2 6 -11 0 -9 11 -29 24 -44 30
-34 45 -24 53 35 10 71 -28 140 -54 100 -4 -8 -12 20 -19 67 -10 78 -11 79
-23 50z"></path>
<path class="node" id="node8" d="M1025 788 c13 -42 40 -81 63 -89 50 -19 33 58 -20 91 -42 26 -51 25
-43 -2z"></path>
<path class="node" id="node9" d="M1209 781 c-19 -20 -29 -40 -29 -60 0 -34 2 -36 31 -21 35 19 67 110
38 110 -6 0 -24 -13 -40 -29z"></path>
</g>
</svg>